PathFileType	4	(X/Y/Z)	./resultDataOpenSim/trcMotMarkerGrf/sub06/qtm-15-02.trc
DataRate	CameraRate	NumFrames	NumMarkers	Units	OrigDataRate	OrigDataStartFrame	OrigNumFrames
250.000000	250.000000	6	24	m	250.000000	1	547
Frame#	Time	L.Toe.Tip			R.Toe.Tip			L.Ankle.Lat			R.Ankle.Lat			L.Ankle.Med			R.Ankle.Med			L.Heel			R.Heel			L.Knee.Lat			R.Knee.Lat			L.Knee.Med			R.Knee.Med			L.Thigh.Upper			R.Thigh.Upper			L.ASIS			R.ASIS			V.Sacral			L.Acromium			R.Acromium			C7			L.Elbow			R.Elbow			L.Wrist.Lat			R.Wrist.Lat
		X1	Y1	Z1	X2	Y2	Z2	X3	Y3	Z3	X4	Y4	Z4	X5	Y5	Z5	X6	Y6	Z6	X7	Y7	Z7	X8	Y8	Z8	X9	Y9	Z9	X10	Y10	Z10	X11	Y11	Z11	X12	Y12	Z12	X13	Y13	Z13	X14	Y14	Z14	X15	Y15	Z15	X16	Y16	Z16	X17	Y17	Z17	X18	Y18	Z18	X19	Y19	Z19	X20	Y20	Z20	X21	Y21	Z21	X22	Y22	Z22	X23	Y23	Z23	X24	Y24	Z24

1	0	-1.5115959	0.032743034	-0.073304032	-1.2132624	0.063303269	0.1266385	-1.6383969	0.068298793	-0.078993367	-1.3437025	0.089024923	0.13111817	-1.6243717	0.080513289	0.0039830003	-1.3151268	0.10925582	0.048561728	NaN	NaN	NaN	-1.3888025	0.063674864	0.059795222	-1.5335357	0.42598513	-0.10195181	-1.2775489	0.47441496	0.14942092	-1.5467324	0.43113362	0.021122944	-1.300413	0.45694711	0.023215211	-1.4760526	0.80877436	-0.17170219	-1.4455477	0.81162123	0.17833838	-1.3952574	0.85353855	-0.1332621	-1.3701441	0.86468212	0.10770317	-1.5575285	0.93899746	0.01845882	-1.4281198	1.3407683	-0.19697326	-1.4108101	1.336003	0.16415627	-1.4955813	1.3725402	-0.014979202	-1.4395485	1.0140742	-0.25030335	-1.5231084	1.0408796	0.24844313	-1.2156858	0.89852567	-0.2396006	-1.3898182	0.83408183	0.25158135
2	0.004	-1.5115724	0.032672797	-0.073212285	-1.1955413	0.063898503	0.12535444	-1.6384173	0.068281476	-0.07867351	-1.3264897	0.08652081	0.13047791	-1.6245817	0.080471254	0.0042360595	-1.2982832	0.1076839	0.047660282	NaN	NaN	NaN	-1.371087	0.060323509	0.059339723	-1.5315415	0.42537016	-0.10185768	-1.2706979	0.47368364	0.14867965	-1.5440398	0.43060576	0.020998072	-1.2938829	0.45582777	0.022472223	-1.4711725	0.80778579	-0.1710765	-1.4398763	0.81057772	0.17846818	-1.3900465	0.85209759	-0.13360235	-1.3645942	0.86356494	0.10763793	-1.5519742	0.9375535	0.018097057	-1.42268	1.3394725	-0.19704173	-1.405599	1.3345144	0.16420767	-1.4904071	1.3714563	-0.014637273	-1.4316558	1.0125934	-0.25061638	-1.5197179	1.0400035	0.24803976	-1.2063894	0.90014245	-0.23772288	-1.3891058	0.83171092	0.25235248
3	0.008	-1.5115342	0.032611041	-0.073126012	-1.177602	0.06463196	0.12410952	-1.6383233	0.068273028	-0.078452061	-1.309294	0.08413578	0.1298442	-1.6246959	0.080445433	0.004454679	-1.2816371	0.10625313	0.046910075	NaN	NaN	NaN	-1.3533475	0.057100566	0.058920046	-1.5294767	0.42472238	-0.10179034	-1.263912	0.47291591	0.1479408	-1.5415886	0.43012099	0.020897293	-1.2873243	0.45462312	0.021702801	-1.4664137	0.80666964	-0.17048161	-1.4341698	0.80946646	0.17858094	-1.3847602	0.85059857	-0.13391602	-1.358985	0.86239569	0.10760049	-1.5464217	0.93609817	0.017772895	-1.417191	1.3381593	-0.19708658	-1.4003839	1.3329713	0.16427957	-1.4852253	1.3703249	-0.014380777	-1.4237849	1.0110775	-0.25106011	-1.5162728	1.039096	0.24762627	-1.1971257	0.90171223	-0.23585669	-1.388383	0.82936225	0.25312044
4	0.012	-1.5114771	0.032561289	-0.073053637	-1.1594522	0.065557002	0.12291094	-1.6380111	0.068282943	-0.078412476	-1.2920994	0.081964797	0.12921756	-1.6246351	0.080444947	0.0046209538	-1.2652223	0.10504043	0.046357664	NaN	NaN	NaN	-1.3355529	0.05413855	0.058492062	-1.5272939	0.42403174	-0.10176715	-1.2572352	0.47206766	0.14720107	-1.5393025	0.4296753	0.020814835	-1.2807246	0.45330163	0.020898365	-1.4617319	0.80537953	-0.1699657	-1.428389	0.8082604	0.17866779	-1.3793665	0.84903409	-0.13416716	-1.3533062	0.86115652	0.10759324	-1.5409088	0.93459717	0.017530398	-1.4116252	1.336813	-0.19709794	-1.3951355	1.3313431	0.16437283	-1.4799766	1.3690926	-0.014265155	-1.4159678	1.0094862	-0.25184434	-1.5127456	1.0381433	0.24720369	-1.1879139	0.90321042	-0.23401567	-1.3876302	0.82703806	0.25387962
5	0.016	-1.5114055	0.032522606	-0.073000673	-1.1413663	0.066636393	0.12174074	-1.6374533	0.068327216	-0.078585172	-1.2749173	0.080059426	0.12860498	-1.6243721	0.080466258	0.004737551	-1.2489128	0.10406482	0.045909339	NaN	NaN	NaN	-1.3177318	0.051512652	0.058021495	-1.5249836	0.42330271	-0.10178737	-1.2506677	0.47112257	0.14645611	-1.5369749	0.4292212	0.020731498	-1.2741005	0.45187624	0.02005621	-1.4569706	0.80394829	-0.16962339	-1.4225319	0.80697772	0.17873821	-1.3739118	0.84742866	-0.13433614	-1.3475892	0.85985425	0.10759872	-1.5354941	0.93303063	0.01738759	-1.4059958	1.3354239	-0.19708094	-1.3898345	1.3296361	0.16447441	-1.4746238	1.3677527	-0.014257676	-1.4082395	1.0077885	-0.25310438	-1.5091444	1.0371496	0.24677781	-1.1787789	0.90463684	-0.23220877	-1.3868202	0.82472661	0.2546253
6	0.02	-1.5113251	0.03248912	-0.072961041	-1.123556	0.067837019	0.12058541	-1.6368348	0.068415318	-0.078843394	-1.257694	0.078467	0.12804654	-1.6239508	0.080496178	0.0048212614	-1.2325789	0.10332522	0.045457597	NaN	NaN	NaN	-1.2999305	0.049211391	0.05753338	-1.5225534	0.42253116	-0.10184142	-1.244157	0.47009777	0.14571121	-1.5345627	0.42870631	0.020647613	-1.2674745	0.45036695	0.019186144	-1.4520465	0.8024224	-0.16950369	-1.4166423	0.80563696	0.17879982	-1.3684581	0.84579467	-0.13444271	-1.3418477	0.85848895	0.10760185	-1.5301453	0.93142109	0.017309688	-1.4003362	1.3339868	-0.19705442	-1.3844919	1.3278763	0.16458215	-1.4691849	1.3663482	-0.014269011	-1.4005551	1.0059964	-0.25459036	-1.5054958	1.0361201	0.24635745	-1.1697257	0.90599699	-0.23042134	-1.3859308	0.82241777	0.25535563
